HIERARCHY
ROOT Hips
{
    OFFSET 0.000000 0.000000 0.000000
    CHANNELS 6 Xposition Yposition Zposition Zrotation Xrotation Yrotation
    JOINT Spine
    {
        OFFSET -0.000000 7.750029 0.000000
        CHANNELS 3 Zrotation Xrotation Yrotation
        JOINT Spine1
        {
            OFFSET -0.000000 19.767460 0.000000
            CHANNELS 3 Zrotation Xrotation Yrotation
            JOINT Neck
            {
                OFFSET -0.000000 19.686279 1.789662
                CHANNELS 3 Zrotation Xrotation Yrotation
                JOINT Head
                {
                    OFFSET -0.000000 13.231757 -1.890251
                    CHANNELS 3 Zrotation Xrotation Yrotation
                    End Site
                    {
                        OFFSET -0.000000 23.628138 0.000000
                    }
                }
            }
            JOINT LeftShoulder
            {
                OFFSET 3.736819 16.910755 -0.280982
                CHANNELS 3 Zrotation Xrotation Yrotation
                JOINT LeftArm
                {
                    OFFSET 13.626117 0.000000 0.000000
                    CHANNELS 3 Zrotation Xrotation Yrotation
                    JOINT LeftForeArm
                    {
                        OFFSET 31.364786 0.000000 0.000000
                        CHANNELS 3 Zrotation Xrotation Yrotation
                        JOINT LeftHand
                        {
                            OFFSET 23.389509 0.000000 0.000000
                            CHANNELS 3 Zrotation Xrotation Yrotation
                            End Site
                            {
                                OFFSET 14.176883 0.000000 0.000000
                            }
                        }
                    }
                }
            }
            JOINT RightShoulder
            {
                OFFSET -3.821718 16.910755 -0.280982
                CHANNELS 3 Zrotation Xrotation Yrotation
                JOINT RightArm
                {
                    OFFSET -13.626117 0.000000 0.000000
                    CHANNELS 3 Zrotation Xrotation Yrotation
                    JOINT RightForeArm
                    {
                        OFFSET -31.364786 0.000000 0.000000
                        CHANNELS 3 Zrotation Xrotation Yrotation
                        JOINT RightHand
                        {
                            OFFSET -23.389509 0.000000 0.000000
                            CHANNELS 3 Zrotation Xrotation Yrotation
                            End Site
                            {
                                OFFSET -14.176883 0.000000 0.000000
                            }
                        }
                    }
                }
            }
        }
    }
    JOINT LeftUpLeg
    {
        OFFSET 9.451255 0.000000 0.000000
        CHANNELS 3 Zrotation Xrotation Yrotation
        JOINT LeftLeg
        {
            OFFSET -0.000000 -41.898624 0.000000
            CHANNELS 3 Zrotation Xrotation Yrotation
            JOINT LeftFoot
            {
                OFFSET -0.000000 -38.481331 0.000000
                CHANNELS 3 Zrotation Xrotation Yrotation
                JOINT LeftToeBase
                {
                    OFFSET -0.000000 -6.143315 14.176883
                    CHANNELS 3 Zrotation Xrotation Yrotation
                    End Site
                    {
                        OFFSET -0.000000 0.000000 3.780502
                    }
                }
            }
        }
    }
    JOINT RightUpLeg
    {
        OFFSET -9.451255 0.000000 0.000000
        CHANNELS 3 Zrotation Xrotation Yrotation
        JOINT RightLeg
        {
            OFFSET -0.000000 -41.898624 0.000000
            CHANNELS 3 Zrotation Xrotation Yrotation
            JOINT RightFoot
            {
                OFFSET -0.000000 -38.481331 0.000000
                CHANNELS 3 Zrotation Xrotation Yrotation
                JOINT RightToeBase
                {
                    OFFSET -0.000000 -6.143315 14.176883
                    CHANNELS 3 Zrotation Xrotation Yrotation
                    End Site
                    {
                        OFFSET -0.000000 0.000000 3.780502
                    }
                }
            }
        }
    }
}
MOTION
Frames:    4
Frame Time:    0.010000
-16.741770    45.781048    -27.678555    -42.463272    13.968878    76.529602    7.420958    20.968306    -1.084518    -6.986088    24.805460    1.829034    17.262676    73.111259    -8.315415    -6.686028    -27.745937    0.902546    16.551439    -8.656997    -19.506899    -41.515034    14.352089    -34.042561    37.763512    -20.847599    -41.849396    20.066648    -4.457160    10.089170    -0.953978    -4.331353    18.842323    32.797970    9.288002    37.253944    -52.007271    -23.532040    49.300026    -0.322837    1.950644    -28.172338    33.844257    -55.331112    15.611839    -173.439117    64.036842    155.339386    7.325383    -0.546781    -3.487893    0.000000    0.000000    0.000000    -140.119003    -76.802666    -138.579132    171.573364    38.525524    -92.836456    -37.477226    -14.348748    -52.587563    0.000000    0.000000    0.000000    
-16.741383    45.740211    -27.721840    -42.431229    13.924429    76.513306    7.402095    20.956993    -1.074104    -6.917270    24.886517    1.825201    17.084497    72.820427    -8.122746    -6.670338    -27.510517    0.911338    16.596230    -8.761245    -19.404423    -41.557201    14.519684    -34.059837    37.848701    -20.879063    -41.901962    20.031927    -4.419092    10.184594    -1.002028    -4.431755    18.723732    32.824776    9.346895    37.296604    -52.265209    -23.498447    49.173546    0.477965    1.862154    -28.094419    33.921459    -55.398781    15.815627    -173.638031    63.939316    155.485382    7.578958    -0.189524    -3.279680    0.000000    0.000000    0.000000    -140.043182    -76.782745    -138.512146    171.612427    38.466488    -92.811043    -37.513172    -14.284019    -52.635414    0.000000    0.000000    0.000000    
-16.744905    45.697220    -27.764971    -42.421013    13.905442    76.517273    7.382461    20.945875    -1.088604    -6.834558    24.837368    1.784910    16.712669    72.685173    -7.804002    -6.598364    -27.295063    0.983119    16.542328    -8.754029    -19.366224    -41.479347    14.734867    -34.034008    38.004143    -20.956114    -41.844479    19.942663    -4.451135    10.263106    -1.033916    -4.321959    18.748550    32.795193    9.257239    37.313995    -52.285358    -23.497709    49.165459    0.607852    1.837672    -28.057690    33.954659    -55.520580    16.004972    -173.847504    63.836109    155.681046    7.786986    0.166667    -3.112956    0.000000    0.000000    0.000000    -140.036865    -76.739868    -138.466171    171.630173    38.390022    -92.715202    -37.607075    -14.185760    -52.695103    0.000000    0.000000    0.000000    
-16.755957    45.655460    -27.813894    -42.412018    13.886619    76.539856    7.378550    20.932133    -1.092829    -6.763133    24.803789    1.760997    15.931173    72.461021    -7.117424    -6.321043    -26.920664    1.215394    16.508266    -8.751007    -19.358202    -41.351089    14.999528    -34.035488    38.130882    -21.062933    -41.772789    20.018158    -4.516773    10.349127    -1.049349    -4.335340    18.750231    32.836834    9.244025    37.234310    -52.210442    -23.537266    49.228706    0.509351    1.814104    -28.006712    33.974106    -55.655579    16.124321    -173.880264    63.703732    155.574051    8.051654    0.584495    -2.706425    0.000000    0.000000    0.000000    -140.034637    -76.675781    -138.451706    171.651474    38.307541    -92.661652    -37.645336    -14.114311    -52.795860    0.000000    0.000000    0.000000    
